<svg xmlns="http://www.w3.org/2000/svg"
    xmlns:xlink="http://www.w3.org/1999/xlink" style="margin:auto;display:block;z-index:1;position:relative" width="1920" height="985" preserveAspectRatio="xMidYMid" viewBox="0 0 1920 985">
    <g transform="">
        <path id="path0" d="M 968.0258801334091 919.0429425223888
c 0 22.64497494744081 -5.5407917424589215 6.50440769766917 -12.04519944012809 6.50440769766917
S 943.9354812531531 941.6879174698296 943.9354812531531 919.0429425223888
s 5.5407917424589215 -6.50440769766917 12.04519944012809 -6.50440769766917
S 968.0258801334091 896.397967574948 968.0258801334091 919.0429425223888
z" fill="none" stroke="none"></path>
        <circle cx="0" cy="0" r="6.30858193060931" fill="#e0ff77">
            <animateMotion begin="-0.9541792763631118s" dur="10s" repeatCount="indefinite">
                <mpath xlink:href="#path0"></mpath>
            </animateMotion>
        </circle>
        <path id="path1" d="M 351.80745920404013 762.9471421013408
c 0 35.01702096574878 -8.56799449161938 10.058080490161883 -18.626074981781265 10.058080490161883
S 314.55530924047764 797.9641630670895 314.55530924047764 762.9471421013408
s 8.56799449161938 -10.058080490161883 18.626074981781265 -10.058080490161883
S 351.80745920404013 727.930121135592 351.80745920404013 762.9471421013408
z" fill="none" stroke="none"></path>
        <circle cx="0" cy="0" r="5.106502528830843" fill="#9df871">
            <animateMotion begin="-6.72547966620564s" dur="10s" repeatCount="indefinite">
                <mpath xlink:href="#path1"></mpath>
            </animateMotion>
        </circle>
        <path id="path2" d="M 114.64589291319231 240.68032304276304
c 0 29.424206166304188 -7.199539806648897 8.451633686066097 -15.651173492714994 8.451633686066097
S 83.34354592776234 270.1045292090672 83.34354592776234 240.68032304276304
s 7.199539806648897 -8.451633686066097 15.651173492714994 -8.451633686066097
S 114.64589291319231 211.25611687645886 114.64589291319231 240.68032304276304
z" fill="none" stroke="none"></path>
        <circle cx="0" cy="0" r="4.337749274995169" fill="#ff708e">
            <animateMotion begin="-6.375808205583855s" dur="10s" repeatCount="indefinite">
                <mpath xlink:href="#path2"></mpath>
            </animateMotion>
        </circle>
        <path id="path3" d="M 1302.1346057617136 361.1516634089679
c 0 29.237715087709432 -7.15390901082252 8.39806709966122 -15.551976110483741 8.39806709966122
S 1271.030653540746 390.38937849667735 1271.030653540746 361.1516634089679
s 7.15390901082252 -8.39806709966122 15.551976110483741 -8.39806709966122
S 1302.1346057617136 331.9139483212585 1302.1346057617136 361.1516634089679
z" fill="none" stroke="none"></path>
        <circle cx="0" cy="0" r="5.596600621619753" fill="#ff708e">
            <animateMotion begin="-2.516995327819822s" dur="10s" repeatCount="indefinite">
                <mpath xlink:href="#path3"></mpath>
            </animateMotion>
        </circle>
        <path id="path4" d="M 1783.6997866817794 25.894096537040635
c 0 23.92090184222063 -5.852986620968878 6.870897337659118 -12.723883958627995 6.870897337659118
S 1758.2520187645234 49.81499837926127 1758.2520187645234 25.894096537040635
s 5.852986620968878 -6.870897337659118 12.723883958627995 -6.870897337659118
S 1783.6997866817794 1.9731946948200054 1783.6997866817794 25.894096537040635
z" fill="none" stroke="none"></path>
        <circle cx="0" cy="0" r="5.186459102925427" fill="#e0ff77">
            <animateMotion begin="-7.349343452232584s" dur="10s" repeatCount="indefinite">
                <mpath xlink:href="#path4"></mpath>
            </animateMotion>
        </circle>
        <path id="path5" d="M 1689.2696492419373 404.9400270076446
c 0 30.785685128931647 -7.532667637930083 8.842696792352708 -16.37536443028279 8.842696792352708
S 1656.5189203813716 435.72571213657625 1656.5189203813716 404.9400270076446
s 7.532667637930083 -8.842696792352708 16.37536443028279 -8.842696792352708
S 1689.2696492419373 374.1543418787129 1689.2696492419373 404.9400270076446
z" fill="none" stroke="none"></path>
        <circle cx="0" cy="0" r="5.338421142728027" fill="#51cacc">
            <animateMotion begin="-9.993074278921865s" dur="10s" repeatCount="indefinite">
                <mpath xlink:href="#path5"></mpath>
            </animateMotion>
        </circle>
        <path id="path6" d="M 1848.5078039621912 62.49631209590736
c 0 22.800984296540943 -5.578964242770656 6.549218893687293 -12.128183136457949 6.549218893687293
S 1824.2514376892755 85.2972963924483 1824.2514376892755 62.49631209590736
s 5.578964242770656 -6.549218893687293 12.128183136457949 -6.549218893687293
S 1848.5078039621912 39.695327799366424 1848.5078039621912 62.49631209590736
z" fill="none" stroke="none"></path>
        <circle cx="0" cy="0" r="4.0013903112571825" fill="#ff708e">
            <animateMotion begin="-6.732802793145889s" dur="10s" repeatCount="indefinite">
                <mpath xlink:href="#path6"></mpath>
            </animateMotion>
        </circle>
        <path id="path7" d="M 787.1234182804252 130.31389369425344
c 0 34.34179691177703 -8.402780095434803 9.864133155510423 -18.266913250945226 9.864133155510423
S 750.5895917785348 164.65569060603048 750.5895917785348 130.31389369425344
s 8.402780095434803 -9.864133155510423 18.266913250945226 -9.864133155510423
S 787.1234182804252 95.9720967824764 787.1234182804252 130.31389369425344
z" fill="none" stroke="none"></path>
        <circle cx="0" cy="0" r="7.752250293183081" fill="#ff708e">
            <animateMotion begin="-4.094673612863846s" dur="10s" repeatCount="indefinite">
                <mpath xlink:href="#path7"></mpath>
            </animateMotion>
        </circle>
        <path id="path8" d="M 1405.8986766977068 77.3445919576566
c 0 34.71176133518504 -8.493303305417616 9.970399532446766 -18.463702837864382 9.970399532446766
S 1368.9712710219783 112.05635329284164 1368.9712710219783 77.3445919576566
s 8.493303305417616 -9.970399532446766 18.463702837864382 -9.970399532446766
S 1405.8986766977068 42.632830622471566 1405.8986766977068 77.3445919576566
z" fill="none" stroke="none"></path>
        <circle cx="0" cy="0" r="5.744527552056185" fill="#ff708e">
            <animateMotion begin="-6.97576892135888s" dur="10s" repeatCount="indefinite">
                <mpath xlink:href="#path8"></mpath>
            </animateMotion>
        </circle>
        <path id="path9" d="M 1528.7620527847769 539.8957332043374
c 0 31.719043114901712 -7.76104246428446 9.110788979812193 -16.871831444096653 9.110788979812193
S 1495.0183898965836 571.6147763192391 1495.0183898965836 539.8957332043374
s 7.76104246428446 -9.110788979812193 16.871831444096653 -9.110788979812193
S 1528.7620527847769 508.1766900894357 1528.7620527847769 539.8957332043374
z" fill="none" stroke="none"></path>
        <circle cx="0" cy="0" r="7.605263644344208" fill="#9df871">
            <animateMotion begin="-5.874404687437538s" dur="10s" repeatCount="indefinite">
                <mpath xlink:href="#path9"></mpath>
            </animateMotion>
        </circle>
        <path id="path10" d="M 1762.2653155800622 661.2809544372396
c 0 31.775288938100292 -7.774804740173475 9.126944694986255 -16.90174943515973 9.126944694986255
S 1728.4618167097428 693.0562433753399 1728.4618167097428 661.2809544372396
s 7.774804740173475 -9.126944694986255 16.90174943515973 -9.126944694986255
S 1762.2653155800622 629.5056654991394 1762.2653155800622 661.2809544372396
z" fill="none" stroke="none"></path>
        <circle cx="0" cy="0" r="5.44786873278321" fill="#de9dd6">
            <animateMotion begin="-0.607402671736581s" dur="10s" repeatCount="indefinite">
                <mpath xlink:href="#path10"></mpath>
            </animateMotion>
        </circle>
        <path id="path11" d="M 794.9085589933361 714.609465838492
c 0 20.49410369901965 -5.01451473486651 5.886604253973729 -10.901118988840238 5.886604253973729
S 773.1063210156556 735.1035695375117 773.1063210156556 714.609465838492
s 5.01451473486651 -5.886604253973729 10.901118988840238 -5.886604253973729
S 794.9085589933361 694.1153621394724 794.9085589933361 714.609465838492
z" fill="none" stroke="none"></path>
        <circle cx="0" cy="0" r="7.925213802256468" fill="#ff708e">
            <animateMotion begin="-6.072637185143734s" dur="10s" repeatCount="indefinite">
                <mpath xlink:href="#path11"></mpath>
            </animateMotion>
        </circle>
        <path id="path12" d="M 1320.9447297089216 519.5887769170282
c 0 24.183420165660888 -5.917219827768089 6.946301536945149 -12.863521364713238 6.946301536945149
S 1295.217686979495 543.7721970826891 1295.217686979495 519.5887769170282
s 5.917219827768089 -6.946301536945149 12.863521364713238 -6.946301536945149
S 1320.9447297089216 495.4053567513673 1320.9447297089216 519.5887769170282
z" fill="none" stroke="none"></path>
        <circle cx="0" cy="0" r="6.600815460681502" fill="#e0ff77">
            <animateMotion begin="-0.677584673997822s" dur="10s" repeatCount="indefinite">
                <mpath xlink:href="#path12"></mpath>
            </animateMotion>
        </circle>
        <path id="path13" d="M 120.80512231385961 54.00593139616788
c 0 35.42357422635064 -8.66747028942622 10.174856426717737 -18.842326716143955 10.174856426717737
S 83.1204688815717 89.42950562251852 83.1204688815717 54.00593139616788
s 8.66747028942622 -10.174856426717737 18.842326716143955 -10.174856426717737
S 120.80512231385961 18.582357169817243 120.80512231385961 54.00593139616788
z" fill="none" stroke="none"></path>
        <circle cx="0" cy="0" r="4.817623122937266" fill="#ff708e">
            <animateMotion begin="-4.91197524742379s" dur="10s" repeatCount="indefinite">
                <mpath xlink:href="#path13"></mpath>
            </animateMotion>
        </circle>
        <path id="path14" d="M 1132.656489329187 479.12359626778255
c 0 33.674047148967944 -8.239394515173007 9.672332691724836 -17.911727206897844 9.672332691724836
S 1096.8330349153912 512.7976434167505 1096.8330349153912 479.12359626778255
s 8.239394515173007 -9.672332691724836 17.911727206897844 -9.672332691724836
S 1132.656489329187 445.4495491188146 1132.656489329187 479.12359626778255
z" fill="none" stroke="none"></path>
        <circle cx="0" cy="0" r="5.921085484543997" fill="#51cacc">
            <animateMotion begin="-2.2740338116816505s" dur="10s" repeatCount="indefinite">
                <mpath xlink:href="#path14"></mpath>
            </animateMotion>
        </circle>
        <path id="path15" d="M 624.6346430106654 590.0409202276237
c 0 37.2556157669608 -9.115735772767005 10.701081124552571 -19.816816897319576 10.701081124552571
S 585.0010092160263 627.2965359945845 585.0010092160263 590.0409202276237
s 9.115735772767005 -10.701081124552571 19.816816897319576 -10.701081124552571
S 624.6346430106654 552.7853044606629 624.6346430106654 590.0409202276237
z" fill="none" stroke="none"></path>
        <circle cx="0" cy="0" r="6.646799383719301" fill="#e0ff77">
            <animateMotion begin="-4.636904891984937s" dur="10s" repeatCount="indefinite">
                <mpath xlink:href="#path15"></mpath>
            </animateMotion>
        </circle>
        <path id="path16" d="M 188.84094000810967 208.63796298196425
c 0 26.66974386591598 -6.525575626766675 7.660458344465229 -14.186033971231904 7.660458344465229
S 160.46887206564588 235.30770684788024 160.46887206564588 208.63796298196425
s 6.525575626766675 -7.660458344465229 14.186033971231904 -7.660458344465229
S 188.84094000810967 181.96821911604826 188.84094000810967 208.63796298196425
z" fill="none" stroke="none"></path>
        <circle cx="0" cy="0" r="7.82442921827048" fill="#e0ff77">
            <animateMotion begin="-8.065724284939504s" dur="10s" repeatCount="indefinite">
                <mpath xlink:href="#path16"></mpath>
            </animateMotion>
        </circle>
        <path id="path17" d="M 884.3638444745221 856.1584451807172
c 0 19.674957763134245 -4.814085410128591 5.651317655368348 -10.46540306549694 5.651317655368348
S 863.4330383435282 875.8334029438514 863.4330383435282 856.1584451807172
s 4.814085410128591 -5.651317655368348 10.46540306549694 -5.651317655368348
S 884.3638444745221 836.483487417583 884.3638444745221 856.1584451807172
z" fill="none" stroke="none"></path>
        <circle cx="0" cy="0" r="7.378635808956261" fill="#9df871">
            <animateMotion begin="-1.486979190024409s" dur="10s" repeatCount="indefinite">
                <mpath xlink:href="#path17"></mpath>
            </animateMotion>
        </circle>
        <path id="path18" d="M 1233.1969259412278 42.14900705812061
c 0 33.66430842141135 -8.23701163502618 9.66953539763943 -17.90654703266561 9.66953539763943
S 1197.3838318758965 75.81331547953195 1197.3838318758965 42.14900705812061
s 8.23701163502618 -9.66953539763943 17.90654703266561 -9.66953539763943
S 1233.1969259412278 8.484698636709261 1233.1969259412278 42.14900705812061
z" fill="none" stroke="none"></path>
        <circle cx="0" cy="0" r="5.307045979413975" fill="#e0ff77">
            <animateMotion begin="-0.002253854640386077s" dur="10s" repeatCount="indefinite">
                <mpath xlink:href="#path18"></mpath>
            </animateMotion>
        </circle>
        <path id="path19" d="M 1801.7508764407971 161.6453490957684
c 0 20.959043617121928 -5.128276629721323 6.020150826194596 -11.148427455915918 6.020150826194596
S 1779.4540215289653 182.60439271289033 1779.4540215289653 161.6453490957684
s 5.128276629721323 -6.020150826194596 11.148427455915918 -6.020150826194596
S 1801.7508764407971 140.6863054786465 1801.7508764407971 161.6453490957684
z" fill="none" stroke="none"></path>
        <circle cx="0" cy="0" r="6.630600434144508" fill="#de9dd6">
            <animateMotion begin="-4.788404394780848s" dur="10s" repeatCount="indefinite">
                <mpath xlink:href="#path19"></mpath>
            </animateMotion>
        </circle>
        <path id="path20" d="M 96.23071520728497 122.5036197654763
c 0 29.502478880753177 -7.218691641035351 8.474116274258892 -15.692807915294242 8.474116274258892
S 64.8450993766965 152.00609864622947 64.8450993766965 122.5036197654763
s 7.218691641035351 -8.474116274258892 15.692807915294242 -8.474116274258892
S 96.23071520728497 93.00114088472313 96.23071520728497 122.5036197654763
z" fill="none" stroke="none"></path>
        <circle cx="0" cy="0" r="4.527983004931826" fill="#e0ff77">
            <animateMotion begin="-4.871261606035143s" dur="10s" repeatCount="indefinite">
                <mpath xlink:href="#path20"></mpath>
            </animateMotion>
        </circle>
        <path id="path21" d="M 55.0893342638375 158.30592004440825
c 0 33.879253395890245 -8.28960455431357 9.731274911585496 -18.020879465899064 9.731274911585496
S 19.047575332039372 192.1851734402985 19.047575332039372 158.30592004440825
s 8.28960455431357 -9.731274911585496 18.020879465899064 -9.731274911585496
S 55.0893342638375 124.42666664851801 55.0893342638375 158.30592004440825
z" fill="none" stroke="none"></path>
        <circle cx="0" cy="0" r="7.151226438520885" fill="#e0ff77">
            <animateMotion begin="-1.0166826558852171s" dur="10s" repeatCount="indefinite">
                <mpath xlink:href="#path21"></mpath>
            </animateMotion>
        </circle>
        <path id="path22" d="M 757.5244788847014 777.0637355497894
c 0 30.262059594374996 -7.404546496496009 8.692293713277925 -16.096840209773934 8.692293713277925
S 725.3307984651534 807.3257951441644 725.3307984651534 777.0637355497894
s 7.404546496496009 -8.692293713277925 16.096840209773934 -8.692293713277925
S 757.5244788847014 746.8016759554143 757.5244788847014 777.0637355497894
z" fill="none" stroke="none"></path>
        <circle cx="0" cy="0" r="7.197120448722307" fill="#ff708e">
            <animateMotion begin="-0.2342124856707306s" dur="10s" repeatCount="indefinite">
                <mpath xlink:href="#path22"></mpath>
            </animateMotion>
        </circle>
        <path id="path23" d="M 1164.5644164700727 102.29862327679989
c 0 24.825112928021763 -6.074229758984048 7.1306175431551875 -13.204847302139235 7.1306175431551875
S 1138.154721865794 127.12373620482165 1138.154721865794 102.29862327679989
s 6.074229758984048 -7.1306175431551875 13.204847302139235 -7.1306175431551875
S 1164.5644164700727 77.47351034877812 1164.5644164700727 102.29862327679989
z" fill="none" stroke="none"></path>
        <circle cx="0" cy="0" r="7.307742400460537" fill="#ff708e">
            <animateMotion begin="-4.522731245723199s" dur="10s" repeatCount="indefinite">
                <mpath xlink:href="#path23"></mpath>
            </animateMotion>
        </circle>
        <path id="path24" d="M 788.1569294095973 648.5752235420196
c 0 29.279635025924335 -7.164166016981485 8.410107932978267 -15.574273949959752 8.410107932978267
S 757.0083815096777 677.8548585679439 757.0083815096777 648.5752235420196
s 7.164166016981485 -8.410107932978267 15.574273949959752 -8.410107932978267
S 788.1569294095973 619.2955885160952 788.1569294095973 648.5752235420196
z" fill="none" stroke="none"></path>
        <circle cx="0" cy="0" r="7.731609509413064" fill="#de9dd6">
            <animateMotion begin="-8.097209933667395s" dur="10s" repeatCount="indefinite">
                <mpath xlink:href="#path24"></mpath>
            </animateMotion>
        </circle>
        <path id="path25" d="M 921.9169736391508 880.1496814094489
c 0 22.933241248664885 -5.6113249863754495 6.587207592701616 -12.198532579077066 6.587207592701616
S 897.5199084809966 903.0829226581138 897.5199084809966 880.1496814094489
s 5.6113249863754495 -6.587207592701616 12.198532579077066 -6.587207592701616
S 921.9169736391508 857.216440160784 921.9169736391508 880.1496814094489
z" fill="none" stroke="none"></path>
        <circle cx="0" cy="0" r="7.8729347570666635" fill="#e0ff77">
            <animateMotion begin="-6.012724669196478s" dur="10s" repeatCount="indefinite">
                <mpath xlink:href="#path25"></mpath>
            </animateMotion>
        </circle>
        <path id="path26" d="M 401.1768852837083 188.8188551360347
c 0 36.95186410603344 -9.041413557859244 10.613833307052158 -19.6552468649114 10.613833307052158
S 361.8663915538855 225.77071924206814 361.8663915538855 188.8188551360347
s 9.041413557859244 -10.613833307052158 19.6552468649114 -10.613833307052158
S 401.1768852837083 151.86699103000126 401.1768852837083 188.8188551360347
z" fill="none" stroke="none"></path>
        <circle cx="0" cy="0" r="7.649812347343092" fill="#9df871">
            <animateMotion begin="-6.980638128582905s" dur="10s" repeatCount="indefinite">
                <mpath xlink:href="#path26"></mpath>
            </animateMotion>
        </circle>
        <path id="path27" d="M 1307.3551267345783 205.49188932695557
c 0 27.904324593624338 -6.827653889929358 8.015071957743162 -14.84272584767252 8.015071957743162
S 1277.6696750392334 233.3962139205799 1277.6696750392334 205.49188932695557
s 6.827653889929358 -8.015071957743162 14.84272584767252 -8.015071957743162
S 1307.3551267345783 177.58756473333125 1307.3551267345783 205.49188932695557
z" fill="none" stroke="none"></path>
        <circle cx="0" cy="0" r="7.247275066779022" fill="#9df871">
            <animateMotion begin="-7.528500968429858s" dur="10s" repeatCount="indefinite">
                <mpath xlink:href="#path27"></mpath>
            </animateMotion>
        </circle>
        <path id="path28" d="M 1319.6828269178181 241.4154138445473
c 0 36.48448079721799 -8.927053812085251 10.479584909839211 -19.406638721924462 10.479584909839211
S 1280.869549473969 277.8998946417653 1280.869549473969 241.4154138445473
s 8.927053812085251 -10.479584909839211 19.406638721924462 -10.479584909839211
S 1319.6828269178181 204.9309330473293 1319.6828269178181 241.4154138445473
z" fill="none" stroke="none"></path>
        <circle cx="0" cy="0" r="5.179242810616371" fill="#51cacc">
            <animateMotion begin="-5.399762511563145s" dur="10s" repeatCount="indefinite">
                <mpath xlink:href="#path28"></mpath>
            </animateMotion>
        </circle>
        <path id="path29" d="M 586.545194760329 491.04923210207204
c 0 28.79772536584501 -7.046251951217395 8.271687073168248 -15.317939024385643 8.271687073168248
S 555.9093167115577 519.846957467917 555.9093167115577 491.04923210207204
s 7.046251951217395 -8.271687073168248 15.317939024385643 -8.271687073168248
S 586.545194760329 462.25150673622704 586.545194760329 491.04923210207204
z" fill="none" stroke="none"></path>
        <circle cx="0" cy="0" r="7.572318593674579" fill="#9df871">
            <animateMotion begin="-3.2869772634882044s" dur="10s" repeatCount="indefinite">
                <mpath xlink:href="#path29"></mpath>
            </animateMotion>
        </circle>
    </g>
</svg>