<svg xmlns="http://www.w3.org/2000/svg" viewBox="0 0 221.5 149.5"><defs><style>.cls-1{fill:none;stroke:#333;}.cls-2{stroke:#000;}</style></defs><g id="Layer_2" data-name="Layer 2"><g id="Layer_1-2" data-name="Layer 1"><path class="cls-1" d="M221,9.5v135a4.51,4.51,0,0,1-4.5,4.5H9.5A4.51,4.51,0,0,1,5,144.5H212a4.51,4.51,0,0,0,4.5-4.5V5A4.51,4.51,0,0,1,221,9.5Z"/><circle class="cls-2" cx="54.5" cy="36.5" r="18"/><path class="cls-2" d="M215.18,1.82A4.46,4.46,0,0,0,212,.5H5A4.51,4.51,0,0,0,.5,5V140A4.51,4.51,0,0,0,5,144.5H212a4.51,4.51,0,0,0,4.5-4.5V5A4.46,4.46,0,0,0,215.18,1.82ZM168.76,106.7c-1.08-5.76-2.31-11.5-3.74-17.22a300.48,300.48,0,0,0-19.24,42.82,43,43,0,0,0-22-11c-.63-.12-1.27-.22-1.91-.3-1.07-.14-2.13-.25-3.19-.31,3.41-3.65,6.73-7.37,9.95-11.2Q138,98.4,146.32,86.41,138.9,90,131.66,94.14a43.22,43.22,0,0,0-4.84-20.46A295.6,295.6,0,0,0,157.17,63.1h0l2.2-.9c.9-.38,1.8-.76,2.71-1.16,2.74-1.17,5.48-2.4,8.2-3.68h0c1.08-.51,2.17-1,3.24-1.54.21,1,.44,2,.68,3q1.24,5.4,2.74,10.76c.31,1.17,1.11,4,1.19,4.21q3.93,13.55,9.21,26.82A43,43,0,0,0,168.76,106.7ZM212,79.17,164.55,26l-3-3.36a4.91,4.91,0,0,0-7.34,0l-69,77.4a4.91,4.91,0,0,1-5.83,1.15A4.74,4.74,0,0,1,77.83,100L51.92,71l-3-3.36a4.91,4.91,0,0,0-7.34,0l-32.08,36-4.5,5V9.5A4.49,4.49,0,0,1,9.5,5h198A4.49,4.49,0,0,1,212,9.5Z"/><circle class="cls-2" cx="54.5" cy="36.5" r="18"/></g></g></svg>