<svg xmlns="http://www.w3.org/2000/svg" xmlns:xlink="http://www.w3.org/1999/xlink" viewBox="0 0 324 324"><defs><style>.cls-1{fill:url(#linear-gradient);}.cls-2,.cls-3,.cls-5{fill:#fff;}.cls-2,.cls-5{stroke:#fff;}.cls-4{fill:none;stroke:#ccc;}.cls-5{stroke-width:0.5px;}</style><linearGradient id="linear-gradient" y1="162" x2="324" y2="162" gradientUnits="userSpaceOnUse"><stop offset="0" stop-color="#2cdfe8"/><stop offset="1" stop-color="#2fcbf5"/></linearGradient></defs><g id="Layer_2" data-name="Layer 2"><g id="Layer_1-2" data-name="Layer 1"><rect class="cls-1" width="324" height="324" rx="50.28"/><circle class="cls-2" cx="95.03" cy="116.46" r="21.43"/><circle class="cls-3" cx="95.03" cy="116.46" r="21.43"/><path class="cls-4" d="M293.26,84.32V245a5.39,5.39,0,0,1-5.36,5.36H41.46A5.38,5.38,0,0,1,36.1,245H282.54a5.36,5.36,0,0,0,5.36-5.36V79a5.38,5.38,0,0,1,5.36,5.36Z"/><path class="cls-5" d="M286.33,75.18a5.31,5.31,0,0,0-3.79-1.58H36.1A5.39,5.39,0,0,0,30.74,79V239.68A5.38,5.38,0,0,0,36.1,245H282.54a5.36,5.36,0,0,0,5.36-5.36V79A5.32,5.32,0,0,0,286.33,75.18ZM231.06,200q-1.92-10.29-4.45-20.5a357.67,357.67,0,0,0-22.91,51,51.14,51.14,0,0,0-26.18-13.12c-.75-.15-1.51-.26-2.27-.36-1.27-.17-2.54-.3-3.8-.37q6.09-6.51,11.85-13.33,11.16-13.18,21-27.46-8.85,4.32-17.46,9.21a51.33,51.33,0,0,0-5.76-24.36,352.1,352.1,0,0,0,36.13-12.6h0c.87-.34,1.75-.71,2.62-1.07,1.08-.45,2.15-.91,3.23-1.38,3.26-1.39,6.52-2.86,9.76-4.38h0l3.86-1.83c.25,1.16.53,2.34.81,3.51,1,4.28,2.08,8.56,3.26,12.81.37,1.39,1.32,4.72,1.42,5q4.68,16.13,11,31.93A51.27,51.27,0,0,0,231.06,200Zm51.48-32.78-56.49-63.32-3.56-4a5.84,5.84,0,0,0-8.74,0l-82.2,92.15a5.85,5.85,0,0,1-6.94,1.37,5.78,5.78,0,0,1-1.8-1.37L92,157.51l-3.57-4a5.84,5.84,0,0,0-8.74,0L41.46,196.34l-5.36,6v-118A5.35,5.35,0,0,1,41.46,79H277.18a5.35,5.35,0,0,1,5.36,5.36Z"/></g></g></svg>