<svg xmlns="http://www.w3.org/2000/svg" viewBox="0 0 196.09 132.39"><defs><style>.cls-1{fill:none;stroke:#ccc;}.cls-2{fill:#fff;stroke:#fff;}</style></defs><g id="Layer_2" data-name="Layer 2"><g id="Layer_1-2" data-name="Layer 1"><path class="cls-1" d="M195.59,8.46V127.9a4,4,0,0,1-4,4H8.46a4,4,0,0,1-4-4H187.63a4,4,0,0,0,4-4V4.48a4,4,0,0,1,4,4Z"/><circle class="cls-2" cx="48.27" cy="32.35" r="15.93"/><path class="cls-2" d="M190.44,1.67A3.94,3.94,0,0,0,187.63.5H4.48A3.94,3.94,0,0,0,1.67,1.67,3.9,3.9,0,0,0,.5,4.48V123.92a4,4,0,0,0,4,4H187.63a4,4,0,0,0,4-4V4.48A3.94,3.94,0,0,0,190.44,1.67ZM149.37,94.46c-1-5.1-2-10.17-3.31-15.24a266.19,266.19,0,0,0-17,37.89,38.07,38.07,0,0,0-19.46-9.75c-.56-.11-1.12-.19-1.69-.27-.94-.12-1.88-.22-2.82-.27,3-3.23,6-6.52,8.8-9.91q8.3-9.8,15.65-20.4-6.57,3.21-13,6.84a38.2,38.2,0,0,0-4.29-18.1,264.48,264.48,0,0,0,26.86-9.36h0l1.94-.8c.8-.34,1.59-.67,2.4-1,2.42-1,4.85-2.12,7.25-3.25h0l2.87-1.37c.19.87.39,1.75.6,2.61.74,3.19,1.55,6.37,2.43,9.52.27,1,1,3.52,1,3.73q3.48,12,8.15,23.73A38,38,0,0,0,149.37,94.46ZM187.63,70.1,145.64,23l-2.64-3a4.33,4.33,0,0,0-6.49,0L75.41,88.55a4.34,4.34,0,0,1-5.15,1,4.23,4.23,0,0,1-1.34-1L46,62.86l-2.66-3a4.35,4.35,0,0,0-6.49,0L8.46,91.71l-4,4.46V8.46a4,4,0,0,1,4-4H183.64a4,4,0,0,1,4,4Z"/><circle class="cls-2" cx="48.27" cy="32.35" r="15.93"/></g></g></svg>