<svg xmlns="http://www.w3.org/2000/svg" viewBox="0 0 909.02 132.39"><defs><style>.cls-1{fill:none;stroke:#ccc;}.cls-2,.cls-3{fill:#fff;}.cls-2{stroke:#fff;}</style></defs><g id="Layer_2" data-name="Layer 2"><g id="Layer_1-2" data-name="Layer 1"><path class="cls-1" d="M195.59,8.46V127.9a4,4,0,0,1-4,4H8.46a4,4,0,0,1-4-4H187.63a4,4,0,0,0,4-4V4.48a4,4,0,0,1,4,4Z"/><circle class="cls-2" cx="48.27" cy="32.35" r="15.93"/><path class="cls-2" d="M190.44,1.67A3.94,3.94,0,0,0,187.63.5H4.48A3.94,3.94,0,0,0,1.67,1.67,3.9,3.9,0,0,0,.5,4.48V123.92a4,4,0,0,0,4,4H187.63a4,4,0,0,0,4-4V4.48A3.94,3.94,0,0,0,190.44,1.67ZM149.37,94.46c-1-5.1-2-10.17-3.31-15.24a266.19,266.19,0,0,0-17,37.89,38.07,38.07,0,0,0-19.46-9.75c-.56-.11-1.12-.19-1.69-.27-.94-.12-1.88-.22-2.82-.27,3-3.23,6-6.52,8.8-9.91q8.3-9.8,15.65-20.4-6.57,3.21-13,6.84a38.2,38.2,0,0,0-4.29-18.1,264.48,264.48,0,0,0,26.86-9.36h0l1.94-.8c.8-.34,1.59-.67,2.4-1,2.42-1,4.85-2.12,7.25-3.25h0l2.87-1.37c.19.87.39,1.75.6,2.61.74,3.19,1.55,6.37,2.43,9.52.27,1,1,3.52,1,3.73q3.48,12,8.15,23.73A38,38,0,0,0,149.37,94.46ZM187.63,70.1,145.64,23l-2.64-3a4.33,4.33,0,0,0-6.49,0L75.41,88.55a4.34,4.34,0,0,1-5.15,1,4.23,4.23,0,0,1-1.34-1L46,62.86l-2.66-3a4.35,4.35,0,0,0-6.49,0L8.46,91.71l-4,4.46V8.46a4,4,0,0,1,4-4H183.64a4,4,0,0,1,4,4Z"/><circle class="cls-2" cx="48.27" cy="32.35" r="15.93"/><path class="cls-3" d="M277.77,22.11q12.89,0,21.52,8.59A28.82,28.82,0,0,1,307.94,52a28.89,28.89,0,0,1-8.65,21.26q-8.64,8.64-21.52,8.64H259.18v31.21h-15v-91Zm0,45.77A14.46,14.46,0,0,0,288.7,63.4,15.79,15.79,0,0,0,293,52a15.81,15.81,0,0,0-4.29-11.38,14.46,14.46,0,0,0-10.93-4.48H259.18V67.88Z"/><path class="cls-3" d="M333.36,35.7a9,9,0,0,1-15.28-6.3,8.75,8.75,0,0,1,2.6-6.31,8.93,8.93,0,0,1,12.74,0,8.87,8.87,0,0,1-.06,12.61ZM320,113.13v-65h14v65Z"/><path class="cls-3" d="M381,114.82q-14.7,0-24.51-9.88a33.14,33.14,0,0,1-9.82-24.32q0-14.55,9.82-24.37T381,46.43A33.71,33.71,0,0,1,398.3,51,29.38,29.38,0,0,1,410,63.2l-12.09,7a16.55,16.55,0,0,0-6.69-7.34,19.83,19.83,0,0,0-10.34-2.67,19.41,19.41,0,0,0-14.37,5.85,19.87,19.87,0,0,0-5.78,14.56,19.88,19.88,0,0,0,5.78,14.57A19.41,19.41,0,0,0,380.88,101a20,20,0,0,0,10.34-2.73A17.88,17.88,0,0,0,398.17,91l12.09,6.89a30.88,30.88,0,0,1-12,12.35A33.71,33.71,0,0,1,381,114.82Z"/><path class="cls-3" d="M450.05,114.82a33.31,33.31,0,0,1-24.31-9.88,32.81,32.81,0,0,1-10-24.32,32.8,32.8,0,0,1,10-24.31,34.93,34.93,0,0,1,48.69,0,32.94,32.94,0,0,1,9.95,24.31,33.86,33.86,0,0,1-34.33,34.2Zm-14.43-19.5a20.72,20.72,0,0,0,28.86,0,19.93,19.93,0,0,0,5.85-14.7,19.93,19.93,0,0,0-5.85-14.69,20.72,20.72,0,0,0-28.86,0,19.93,19.93,0,0,0-5.85,14.69A19.93,19.93,0,0,0,435.62,95.32Z"/><path class="cls-3" d="M528.32,114.82q-13.12,0-22.3-6a31.42,31.42,0,0,1-12.8-16.38l12.87-7.54q5.46,15.33,22.62,15.34,8.46,0,12.68-3.32a10.47,10.47,0,0,0,4.23-8.64,9.51,9.51,0,0,0-4.55-8.52q-4.56-2.93-16.13-6.44a109.08,109.08,0,0,1-10.53-3.64A48.77,48.77,0,0,1,505.89,65a19.39,19.39,0,0,1-6.69-7.61A24,24,0,0,1,497,46.69q0-12.09,8.58-19.18a31.43,31.43,0,0,1,20.67-7.09,34.31,34.31,0,0,1,19.12,5.33A34.93,34.93,0,0,1,558,40.45l-12.61,7.28Q539.63,35,526.24,35q-6.5,0-10.4,3a9.94,9.94,0,0,0-3.9,8.26,9.38,9.38,0,0,0,4,8q4,2.94,14.36,6.18c3.47,1.13,6,2,7.61,2.54s3.86,1.45,6.76,2.66a27.38,27.38,0,0,1,6.57,3.64A51.13,51.13,0,0,1,556,73.86a15.65,15.65,0,0,1,3.58,6.24,28.13,28.13,0,0,1,1,7.94q0,12.34-8.91,19.56T528.32,114.82Z"/><path class="cls-3" d="M606.86,46.43q11.17,0,18.07,7.15t6.89,19.63v39.92h-14V74.64q0-7.27-3.9-11.18t-10.66-3.9c-5,0-8.93,1.54-12,4.62S586.7,72,586.7,78.28v34.85h-14v-91h14V56.44Q593.08,46.44,606.86,46.43Z"/><path class="cls-3" d="M658,86.61A17.82,17.82,0,0,0,665.11,98a22.91,22.91,0,0,0,13.65,4q11.18,0,16.77-8.06l11.57,6.76q-9.61,14.17-28.47,14.17-15.87,0-25.62-9.69t-9.75-24.51q0-14.55,9.62-24.37t24.71-9.82q14.29,0,23.47,10a34.72,34.72,0,0,1,9.16,24.31,43,43,0,0,1-.52,5.86Zm-.13-11.45h38.22q-1.42-7.92-6.56-12a19,19,0,0,0-12-4,19.74,19.74,0,0,0-13,4.29A19.32,19.32,0,0,0,657.83,75.16Z"/><path class="cls-3" d="M722.57,113.13V18.21h14v94.92Z"/><path class="cls-3" d="M789.14,61.64H773V92.85q0,4,1.82,5.78a8.15,8.15,0,0,0,5.4,2q3.57.19,8.9-.06v12.61q-16.11,2-23.14-2.8t-7-17.48V61.64H747V48.12h12v-14l14-4.16v18.2h16.12Z"/><path class="cls-3" d="M810.34,86.61A17.82,17.82,0,0,0,817.49,98a22.91,22.91,0,0,0,13.65,4q11.18,0,16.77-8.06l11.58,6.76q-9.63,14.17-28.48,14.17-15.87,0-25.61-9.69t-9.76-24.51q0-14.55,9.63-24.37T830,46.43q14.29,0,23.47,10a34.73,34.73,0,0,1,9.17,24.31,44.64,44.64,0,0,1-.52,5.86Zm-.13-11.45h38.22q-1.42-7.92-6.56-12a19,19,0,0,0-12-4,19.74,19.74,0,0,0-13,4.29A19.32,19.32,0,0,0,810.21,75.16Z"/><path class="cls-3" d="M889,59Q894.33,46.95,909,47V62.16A20.83,20.83,0,0,0,895,66q-6,4.35-6,14.36v32.77H875v-65h14Z"/></g></g></svg>